# xmcd CD database file
#
# Track frame offsets:
#	150
#	17755
#	34423
#	53792
#	65429
#	84348
#	98949
#	120870
#
# Disc length: 1851 seconds
#
# Revision: 1
# Processed by: cddbd v1.5.2PL0 Copyright (c) Steve Scherf et al.
# Submitted via: CDex 1.70beta2
#
DISCID=5d073908
DTITLE=Parson's Road - Cdn. - Back In The Country
DYEAR=2008
DGENRE=Country
TTITLE0=Around The Corner
TTITLE1=In Fields Of Corn
TTITLE2=Sinners To Saints
TTITLE3=Not Your Average Cowboys
TTITLE4=Old Man
TTITLE5=Wandering Road
TTITLE6=The End Game
TTITLE7=The Free Are Betraded
EXTD=YEAR: 2008
EXTT0=
EXTT1=
EXTT2=
EXTT3=
EXTT4=
EXTT5=
EXTT6=
EXTT7=
PLAYORDER=
